<?xml version="1.0" encoding="UTF-8"?>
<svg xmlns="http://www.w3.org/2000/svg" xmlns:xlink="http://www.w3.org/1999/xlink" width="50px" height="50px" viewBox="0 0 50 47" version="1.1">
<g id="surface1">
<path style=" stroke:none;fill-rule:nonzero;fill:rgb(3.529412%,82.745099%,67.450982%);fill-opacity:1;" d="M 41.339844 21.53125 C 41.339844 19.507812 38.96875 17.714844 35.320312 16.617188 C 36.199219 12.894531 35.816406 9.933594 34.070312 8.929688 C 33.640625 8.691406 33.15625 8.570312 32.667969 8.578125 C 31.039062 8.578125 28.980469 9.722656 26.902344 11.699219 C 24.820312 9.734375 22.769531 8.597656 21.140625 8.597656 C 20.644531 8.589844 20.152344 8.710938 19.722656 8.957031 C 17.984375 9.960938 17.625 12.90625 18.488281 16.613281 C 14.859375 17.703125 12.5 19.480469 12.496094 21.496094 C 12.488281 23.511719 14.867188 25.316406 18.515625 26.410156 C 17.636719 30.136719 18.019531 33.09375 19.769531 34.097656 C 20.195312 34.335938 20.675781 34.457031 21.164062 34.449219 C 22.796875 34.449219 24.855469 33.304688 26.9375 31.328125 C 29.011719 33.292969 31.066406 34.429688 32.695312 34.429688 C 33.191406 34.4375 33.683594 34.3125 34.117188 34.070312 C 35.851562 33.066406 36.210938 30.121094 35.347656 26.429688 C 38.976562 25.324219 41.335938 23.546875 41.339844 21.53125 Z M 28.242188 12.363281 C 30.636719 10.210938 32.132812 9.976562 32.664062 9.976562 C 32.914062 9.96875 33.15625 10.027344 33.375 10.148438 C 34.210938 10.625 34.542969 12.316406 34.277344 14.554688 C 34.207031 15.125 34.109375 15.695312 33.984375 16.257812 C 32.773438 15.972656 31.542969 15.769531 30.304688 15.648438 C 29.566406 14.609375 28.761719 13.617188 27.894531 12.6875 C 28.003906 12.578125 28.121094 12.46875 28.242188 12.363281 Z M 20.992188 23.199219 C 21.21875 23.640625 21.460938 24.082031 21.710938 24.523438 C 21.964844 24.96875 22.226562 25.417969 22.519531 25.859375 C 21.726562 25.746094 20.957031 25.601562 20.226562 25.433594 C 20.433594 24.6875 20.691406 23.949219 20.992188 23.199219 Z M 20.179688 17.605469 C 20.921875 17.429688 21.695312 17.289062 22.5 17.175781 C 22.207031 17.609375 21.957031 18.058594 21.691406 18.523438 C 21.429688 18.992188 21.199219 19.40625 20.972656 19.851562 C 20.675781 19.089844 20.410156 18.339844 20.179688 17.605469 Z M 21.703125 21.523438 C 22.066406 20.753906 22.464844 19.984375 22.898438 19.214844 C 23.339844 18.445312 23.808594 17.695312 24.296875 16.980469 C 25.144531 16.914062 26.023438 16.878906 26.925781 16.882812 C 27.832031 16.882812 28.683594 16.917969 29.527344 16.984375 C 30.011719 17.695312 30.476562 18.453125 30.917969 19.203125 C 31.355469 19.953125 31.757812 20.738281 32.121094 21.503906 C 31.761719 22.273438 31.359375 23.046875 30.929688 23.808594 C 30.496094 24.574219 30.019531 25.332031 29.535156 26.050781 C 28.683594 26.117188 27.804688 26.148438 26.902344 26.148438 C 25.996094 26.148438 25.144531 26.109375 24.300781 26.042969 C 23.816406 25.332031 23.347656 24.589844 22.910156 23.824219 C 22.46875 23.058594 22.082031 22.289062 21.714844 21.523438 Z M 31.3125 17.183594 C 32.109375 17.296875 32.878906 17.441406 33.605469 17.609375 C 33.390625 18.335938 33.132812 19.078125 32.835938 19.828125 C 32.605469 19.386719 32.363281 18.949219 32.109375 18.503906 C 31.855469 18.058594 31.585938 17.613281 31.324219 17.183594 Z M 32.121094 24.507812 C 32.375 24.0625 32.613281 23.617188 32.839844 23.175781 C 33.132812 23.9375 33.425781 24.691406 33.628906 25.425781 C 32.894531 25.597656 32.117188 25.742188 31.3125 25.851562 C 31.597656 25.417969 31.871094 24.96875 32.132812 24.507812 Z M 26.90625 13.683594 C 27.433594 14.25 27.949219 14.859375 28.457031 15.515625 C 27.957031 15.496094 27.445312 15.480469 26.925781 15.480469 C 26.410156 15.480469 25.878906 15.480469 25.367188 15.515625 C 25.867188 14.863281 26.378906 14.25 26.90625 13.683594 Z M 20.421875 10.160156 C 20.640625 10.039062 20.890625 9.984375 21.140625 9.996094 C 21.667969 10.015625 22.1875 10.148438 22.660156 10.378906 C 23.730469 10.886719 24.71875 11.558594 25.585938 12.371094 L 25.925781 12.6875 C 25.070312 13.613281 24.269531 14.59375 23.539062 15.625 C 22.296875 15.746094 21.058594 15.949219 19.839844 16.230469 C 19.710938 15.660156 19.605469 15.101562 19.546875 14.5625 C 19.246094 12.34375 19.59375 10.652344 20.417969 10.171875 Z M 18.871094 25.054688 C 18.324219 24.886719 17.78125 24.691406 17.253906 24.46875 C 15.175781 23.585938 13.890625 22.457031 13.890625 21.488281 C 13.890625 20.523438 15.183594 19.398438 17.253906 18.53125 C 17.777344 18.3125 18.308594 18.125 18.847656 17.960938 C 19.210938 19.175781 19.65625 20.367188 20.179688 21.527344 C 19.667969 22.671875 19.230469 23.851562 18.871094 25.054688 Z M 25.597656 30.667969 C 23.203125 32.820312 21.707031 33.050781 21.171875 33.050781 C 20.925781 33.058594 20.679688 33 20.464844 32.878906 C 19.628906 32.402344 19.292969 30.710938 19.558594 28.472656 C 19.628906 27.902344 19.726562 27.335938 19.851562 26.773438 C 21.066406 27.054688 22.292969 27.257812 23.53125 27.378906 C 24.269531 28.421875 25.074219 29.410156 25.941406 30.339844 Z M 26.9375 29.34375 C 26.410156 28.777344 25.890625 28.167969 25.382812 27.511719 C 25.886719 27.535156 26.398438 27.546875 26.914062 27.546875 C 27.433594 27.546875 27.960938 27.546875 28.472656 27.515625 C 27.96875 28.167969 27.453125 28.777344 26.933594 29.34375 Z M 33.421875 32.867188 C 33.199219 32.992188 32.949219 33.050781 32.699219 33.042969 C 32.164062 33.042969 30.652344 32.808594 28.265625 30.660156 L 27.921875 30.347656 C 28.78125 29.421875 29.574219 28.441406 30.304688 27.410156 C 31.550781 27.289062 32.789062 27.085938 34.007812 26.804688 C 34.136719 27.375 34.238281 27.933594 34.300781 28.46875 C 34.589844 30.683594 34.253906 32.378906 33.421875 32.855469 Z M 36.582031 24.511719 C 36.082031 24.71875 35.550781 24.910156 34.992188 25.078125 C 34.625 23.863281 34.175781 22.671875 33.652344 21.511719 C 34.167969 20.367188 34.605469 19.1875 34.96875 17.988281 C 35.515625 18.15625 36.058594 18.351562 36.585938 18.574219 C 38.660156 19.457031 39.949219 20.585938 39.949219 21.554688 C 39.945312 22.519531 38.65625 23.632812 36.578125 24.5 Z M 26.90625 24.210938 C 28.390625 24.214844 29.59375 23.007812 29.59375 21.519531 C 29.597656 20.027344 28.394531 18.820312 26.914062 18.816406 C 25.429688 18.816406 24.226562 20.023438 24.226562 21.511719 C 24.222656 22.226562 24.503906 22.914062 25.007812 23.421875 C 25.511719 23.929688 26.195312 24.210938 26.90625 24.210938 Z M 9.066406 5.257812 L 9.066406 37.769531 L 44.769531 37.769531 L 44.769531 5.257812 Z M 43.371094 36.371094 L 10.464844 36.371094 L 10.464844 6.660156 L 43.371094 6.660156 Z M 18.511719 26.410156 C 17.636719 30.136719 18.015625 33.09375 19.765625 34.097656 C 20.191406 34.335938 20.675781 34.457031 21.164062 34.449219 C 22.792969 34.449219 24.855469 33.304688 26.933594 31.328125 C 29.007812 33.292969 31.0625 34.429688 32.691406 34.429688 C 33.1875 34.4375 33.679688 34.3125 34.113281 34.070312 C 35.851562 33.066406 36.207031 30.121094 35.34375 26.429688 C 38.972656 25.335938 41.335938 23.558594 41.335938 21.542969 C 41.339844 19.53125 38.964844 17.726562 35.316406 16.628906 C 36.195312 12.90625 35.8125 9.945312 34.066406 8.941406 C 33.636719 8.703125 33.15625 8.582031 32.664062 8.589844 C 31.035156 8.589844 28.976562 9.734375 26.898438 11.710938 C 24.820312 9.746094 22.765625 8.609375 21.140625 8.609375 C 20.640625 8.601562 20.152344 8.722656 19.71875 8.96875 C 17.980469 9.972656 17.621094 12.917969 18.488281 16.625 C 14.855469 17.714844 12.496094 19.492188 12.492188 21.507812 C 12.484375 23.523438 14.867188 25.3125 18.515625 26.410156 Z M 25.59375 30.667969 C 23.199219 32.820312 21.699219 33.050781 21.164062 33.050781 C 20.917969 33.058594 20.675781 33 20.457031 32.878906 C 19.621094 32.402344 19.289062 30.710938 19.554688 28.472656 C 19.621094 27.902344 19.71875 27.335938 19.847656 26.773438 C 21.058594 27.054688 22.289062 27.257812 23.527344 27.378906 C 24.261719 28.421875 25.066406 29.410156 25.9375 30.339844 Z M 32.84375 19.828125 C 32.613281 19.386719 32.375 18.949219 32.117188 18.503906 C 31.863281 18.058594 31.59375 17.621094 31.324219 17.183594 C 32.117188 17.296875 32.886719 17.441406 33.617188 17.609375 C 33.402344 18.335938 33.144531 19.078125 32.847656 19.828125 Z M 33.640625 25.410156 C 32.902344 25.585938 32.128906 25.726562 31.324219 25.835938 C 31.597656 25.402344 31.867188 24.953125 32.128906 24.492188 C 32.394531 24.03125 32.632812 23.585938 32.851562 23.160156 C 33.15625 23.9375 33.421875 24.6875 33.632812 25.425781 Z M 32.117188 21.488281 C 31.757812 22.257812 31.355469 23.03125 30.921875 23.796875 C 30.488281 24.558594 30.011719 25.316406 29.527344 26.035156 C 28.675781 26.101562 27.800781 26.132812 26.894531 26.132812 C 25.992188 26.132812 25.140625 26.097656 24.296875 26.027344 C 23.808594 25.316406 23.339844 24.578125 22.902344 23.808594 C 22.464844 23.042969 22.0625 22.277344 21.699219 21.507812 C 22.0625 20.738281 22.460938 19.96875 22.894531 19.199219 C 23.332031 18.429688 23.804688 17.679688 24.289062 16.964844 C 25.140625 16.898438 26.019531 16.863281 26.921875 16.867188 C 27.824219 16.871094 28.675781 16.902344 29.523438 16.96875 C 30.007812 17.679688 30.472656 18.4375 30.910156 19.1875 C 31.347656 19.9375 31.757812 20.738281 32.117188 21.503906 Z M 22.519531 25.859375 C 21.726562 25.746094 20.957031 25.601562 20.226562 25.433594 C 20.445312 24.710938 20.703125 23.960938 21.003906 23.214844 C 21.230469 23.652344 21.472656 24.09375 21.722656 24.539062 C 21.976562 24.980469 22.226562 25.417969 22.519531 25.859375 Z M 21.703125 18.515625 C 21.449219 18.957031 21.210938 19.398438 20.984375 19.84375 C 20.679688 19.085938 20.410156 18.339844 20.179688 17.605469 C 20.921875 17.429688 21.695312 17.289062 22.5 17.175781 C 22.226562 17.609375 21.96875 18.058594 21.703125 18.515625 Z M 26.933594 29.34375 C 26.40625 28.777344 25.890625 28.167969 25.378906 27.511719 C 25.882812 27.535156 26.394531 27.546875 26.914062 27.546875 C 27.429688 27.546875 27.960938 27.546875 28.472656 27.515625 C 27.96875 28.167969 27.453125 28.777344 26.933594 29.34375 Z M 33.421875 32.867188 C 33.199219 32.992188 32.949219 33.050781 32.695312 33.042969 C 32.164062 33.042969 30.648438 32.808594 28.261719 30.660156 L 27.917969 30.347656 C 28.777344 29.421875 29.574219 28.441406 30.300781 27.410156 C 31.546875 27.289062 32.785156 27.085938 34.003906 26.804688 C 34.132812 27.375 34.234375 27.933594 34.296875 28.46875 C 34.589844 30.683594 34.253906 32.378906 33.421875 32.855469 Z M 34.964844 17.984375 C 35.515625 18.152344 36.054688 18.347656 36.585938 18.570312 C 38.65625 19.453125 39.949219 20.582031 39.945312 21.550781 C 39.941406 22.515625 38.65625 23.652344 36.578125 24.519531 C 36.078125 24.726562 35.550781 24.917969 34.988281 25.089844 C 34.621094 23.871094 34.175781 22.679688 33.652344 21.519531 C 34.164062 20.367188 34.605469 19.183594 34.964844 17.972656 Z M 28.238281 12.375 C 30.632812 10.222656 32.128906 9.988281 32.664062 9.988281 C 32.910156 9.980469 33.152344 10.039062 33.371094 10.160156 C 34.207031 10.636719 34.539062 12.328125 34.273438 14.566406 C 34.207031 15.136719 34.109375 15.707031 33.980469 16.269531 C 32.769531 15.984375 31.539062 15.78125 30.300781 15.660156 C 29.566406 14.621094 28.761719 13.628906 27.890625 12.699219 C 28.003906 12.578125 28.121094 12.46875 28.242188 12.363281 Z M 26.90625 13.683594 C 27.433594 14.25 27.949219 14.859375 28.457031 15.515625 C 27.957031 15.496094 27.445312 15.480469 26.925781 15.480469 C 26.410156 15.480469 25.878906 15.480469 25.367188 15.515625 C 25.867188 14.863281 26.378906 14.25 26.90625 13.683594 Z M 20.421875 10.160156 C 20.640625 10.039062 20.890625 9.984375 21.140625 9.996094 C 21.667969 10.015625 22.1875 10.148438 22.660156 10.378906 C 23.730469 10.886719 24.71875 11.558594 25.585938 12.371094 L 25.925781 12.6875 C 25.070312 13.613281 24.269531 14.59375 23.539062 15.625 C 22.296875 15.746094 21.058594 15.949219 19.839844 16.230469 C 19.710938 15.660156 19.605469 15.101562 19.546875 14.5625 C 19.246094 12.34375 19.59375 10.652344 20.417969 10.171875 Z M 17.253906 18.53125 C 17.777344 18.3125 18.308594 18.125 18.847656 17.960938 C 19.210938 19.175781 19.65625 20.367188 20.179688 21.527344 C 19.667969 22.671875 19.226562 23.851562 18.867188 25.054688 C 18.316406 24.882812 17.777344 24.6875 17.246094 24.464844 C 15.171875 23.582031 13.882812 22.453125 13.882812 21.484375 C 13.882812 20.519531 15.183594 19.398438 17.253906 18.53125 Z M 26.90625 18.824219 C 25.425781 18.820312 24.222656 20.027344 24.21875 21.519531 C 24.21875 23.007812 25.417969 24.214844 26.902344 24.21875 C 28.382812 24.21875 29.585938 23.015625 29.589844 21.523438 C 29.59375 20.804688 29.3125 20.117188 28.8125 19.605469 C 28.308594 19.097656 27.621094 18.808594 26.90625 18.808594 Z M 26.90625 18.824219 C 25.425781 18.820312 24.222656 20.027344 24.21875 21.519531 C 24.21875 23.007812 25.417969 24.214844 26.902344 24.21875 C 28.382812 24.21875 29.585938 23.015625 29.589844 21.523438 C 29.59375 20.804688 29.3125 20.117188 28.8125 19.605469 C 28.308594 19.097656 27.621094 18.808594 26.90625 18.808594 Z M 26.90625 18.824219 C 25.425781 18.820312 24.222656 20.027344 24.21875 21.519531 C 24.21875 23.007812 25.417969 24.214844 26.902344 24.21875 C 28.382812 24.21875 29.585938 23.015625 29.589844 21.523438 C 29.59375 20.804688 29.3125 20.117188 28.8125 19.605469 C 28.308594 19.097656 27.621094 18.808594 26.90625 18.808594 Z M 41.339844 21.539062 C 41.339844 19.515625 38.96875 17.71875 35.320312 16.625 C 36.199219 12.902344 35.816406 9.9375 34.070312 8.9375 C 33.640625 8.699219 33.15625 8.578125 32.667969 8.585938 C 31.039062 8.585938 28.980469 9.726562 26.902344 11.703125 C 24.820312 9.742188 22.769531 8.605469 21.140625 8.605469 C 20.644531 8.59375 20.152344 8.71875 19.722656 8.964844 C 17.984375 9.96875 17.625 12.914062 18.488281 16.617188 C 14.859375 17.707031 12.5 19.488281 12.496094 21.503906 C 12.488281 23.519531 14.867188 25.324219 18.515625 26.417969 C 17.636719 30.140625 18.019531 33.101562 19.769531 34.101562 C 20.195312 34.34375 20.675781 34.464844 21.164062 34.453125 C 22.796875 34.453125 24.855469 33.3125 26.9375 31.335938 C 29.011719 33.296875 31.066406 34.433594 32.695312 34.433594 C 33.191406 34.445312 33.683594 34.320312 34.117188 34.074219 C 35.851562 33.070312 36.210938 30.128906 35.347656 26.4375 C 38.976562 25.324219 41.335938 23.546875 41.339844 21.53125 Z M 28.242188 12.363281 C 30.636719 10.210938 32.132812 9.976562 32.664062 9.976562 C 32.914062 9.96875 33.15625 10.027344 33.375 10.148438 C 34.210938 10.625 34.542969 12.316406 34.277344 14.554688 C 34.207031 15.125 34.109375 15.695312 33.984375 16.257812 C 32.773438 15.972656 31.542969 15.769531 30.304688 15.648438 C 29.566406 14.609375 28.761719 13.617188 27.894531 12.6875 C 28.003906 12.578125 28.121094 12.46875 28.242188 12.363281 Z M 20.992188 23.199219 C 21.21875 23.640625 21.460938 24.082031 21.710938 24.523438 C 21.964844 24.96875 22.226562 25.417969 22.519531 25.859375 C 21.726562 25.746094 20.957031 25.601562 20.226562 25.433594 C 20.433594 24.6875 20.691406 23.949219 20.992188 23.199219 Z M 20.179688 17.605469 C 20.921875 17.429688 21.695312 17.289062 22.5 17.175781 C 22.207031 17.609375 21.957031 18.058594 21.691406 18.523438 C 21.429688 18.992188 21.199219 19.40625 20.972656 19.851562 C 20.675781 19.089844 20.410156 18.339844 20.179688 17.605469 Z M 21.703125 21.523438 C 22.066406 20.753906 22.464844 19.984375 22.898438 19.214844 C 23.339844 18.445312 23.808594 17.695312 24.296875 16.980469 C 25.144531 16.914062 26.023438 16.878906 26.925781 16.882812 C 27.832031 16.882812 28.683594 16.917969 29.527344 16.984375 C 30.011719 17.695312 30.476562 18.453125 30.917969 19.203125 C 31.355469 19.953125 31.757812 20.738281 32.121094 21.503906 C 31.761719 22.273438 31.359375 23.046875 30.929688 23.808594 C 30.496094 24.574219 30.019531 25.332031 29.535156 26.050781 C 28.683594 26.117188 27.804688 26.148438 26.902344 26.148438 C 25.996094 26.148438 25.144531 26.109375 24.300781 26.042969 C 23.816406 25.332031 23.347656 24.589844 22.910156 23.824219 C 22.46875 23.058594 22.082031 22.289062 21.714844 21.523438 Z M 31.3125 17.183594 C 32.109375 17.296875 32.878906 17.441406 33.605469 17.609375 C 33.390625 18.335938 33.132812 19.078125 32.835938 19.828125 C 32.605469 19.386719 32.363281 18.949219 32.109375 18.503906 C 31.855469 18.058594 31.585938 17.613281 31.324219 17.183594 Z M 32.121094 24.507812 C 32.375 24.0625 32.613281 23.617188 32.839844 23.175781 C 33.132812 23.9375 33.425781 24.691406 33.628906 25.425781 C 32.894531 25.597656 32.117188 25.742188 31.3125 25.851562 C 31.597656 25.417969 31.871094 24.96875 32.132812 24.507812 Z M 26.90625 13.683594 C 27.433594 14.25 27.949219 14.859375 28.457031 15.515625 C 27.957031 15.496094 27.445312 15.480469 26.925781 15.480469 C 26.410156 15.480469 25.878906 15.480469 25.367188 15.515625 C 25.867188 14.863281 26.378906 14.25 26.90625 13.683594 Z M 20.421875 10.160156 C 20.640625 10.039062 20.890625 9.984375 21.140625 9.996094 C 21.667969 10.015625 22.1875 10.148438 22.660156 10.378906 C 23.730469 10.886719 24.71875 11.558594 25.585938 12.371094 L 25.925781 12.6875 C 25.070312 13.613281 24.269531 14.59375 23.539062 15.625 C 22.296875 15.746094 21.058594 15.949219 19.839844 16.230469 C 19.710938 15.660156 19.605469 15.101562 19.546875 14.5625 C 19.246094 12.34375 19.59375 10.652344 20.417969 10.171875 Z M 18.871094 25.054688 C 18.324219 24.886719 17.78125 24.691406 17.253906 24.46875 C 15.175781 23.585938 13.890625 22.457031 13.890625 21.488281 C 13.890625 20.523438 15.183594 19.398438 17.253906 18.53125 C 17.777344 18.3125 18.308594 18.125 18.847656 17.960938 C 19.210938 19.175781 19.65625 20.367188 20.179688 21.527344 C 19.667969 22.671875 19.230469 23.851562 18.871094 25.054688 Z M 25.597656 30.667969 C 23.203125 32.820312 21.707031 33.050781 21.171875 33.050781 C 20.925781 33.058594 20.679688 33 20.464844 32.878906 C 19.628906 32.402344 19.292969 30.710938 19.558594 28.472656 C 19.628906 27.902344 19.726562 27.335938 19.851562 26.773438 C 21.066406 27.054688 22.292969 27.257812 23.53125 27.378906 C 24.269531 28.421875 25.074219 29.410156 25.941406 30.339844 Z M 26.9375 29.34375 C 26.410156 28.777344 25.890625 28.167969 25.382812 27.511719 C 25.886719 27.535156 26.398438 27.546875 26.914062 27.546875 C 27.433594 27.546875 27.960938 27.546875 28.472656 27.515625 C 27.96875 28.167969 27.453125 28.777344 26.933594 29.34375 Z M 33.421875 32.867188 C 33.199219 32.992188 32.949219 33.050781 32.699219 33.042969 C 32.164062 33.042969 30.652344 32.808594 28.265625 30.660156 L 27.921875 30.347656 C 28.78125 29.421875 29.574219 28.441406 30.304688 27.410156 C 31.550781 27.289062 32.789062 27.085938 34.007812 26.804688 C 34.136719 27.375 34.238281 27.933594 34.300781 28.46875 C 34.589844 30.683594 34.253906 32.378906 33.421875 32.855469 Z M 36.582031 24.511719 C 36.082031 24.71875 35.550781 24.910156 34.992188 25.078125 C 34.625 23.863281 34.175781 22.671875 33.652344 21.511719 C 34.167969 20.367188 34.605469 19.1875 34.96875 17.988281 C 35.515625 18.15625 36.058594 18.351562 36.585938 18.574219 C 38.660156 19.457031 39.949219 20.585938 39.949219 21.554688 C 39.945312 22.519531 38.65625 23.632812 36.578125 24.5 Z M 26.90625 24.210938 C 28.390625 24.214844 29.59375 23.007812 29.59375 21.519531 C 29.597656 20.027344 28.394531 18.820312 26.914062 18.816406 C 25.429688 18.816406 24.226562 20.023438 24.226562 21.511719 C 24.222656 22.226562 24.503906 22.914062 25.007812 23.421875 C 25.511719 23.929688 26.195312 24.210938 26.90625 24.210938 Z M 6.632812 40.226562 L 6.632812 7.703125 L 5.230469 9.113281 L 5.230469 41.628906 L 40.925781 41.628906 L 42.324219 40.226562 Z M 6.632812 40.226562 "/>
</g>
</svg>
