<?xml version="1.0" encoding="UTF-8"?>
<svg xmlns="http://www.w3.org/2000/svg" xmlns:xlink="http://www.w3.org/1999/xlink" width="60px" height="39px" viewBox="0 0 60 39" version="1.1">
<g id="surface1">
<path style=" stroke:none;fill-rule:nonzero;fill:rgb(95.686275%,25.882354%,31.37255%);fill-opacity:1;" d="M 46.425781 13.386719 C 44.714844 12.847656 43.832031 13.027344 42.042969 12.832031 C 39.269531 12.53125 38.167969 11.445312 37.699219 8.652344 C 37.4375 7.097656 37.746094 4.8125 37.078125 3.402344 C 35.796875 0.707031 32.804688 -0.5 29.796875 0.191406 C 27.257812 0.773438 25.144531 3.316406 25.027344 5.925781 C 24.894531 8.902344 26.589844 11.445312 29.5 12.320312 C 30.882812 12.738281 32.351562 12.949219 33.792969 13.054688 C 36.441406 13.25 36.644531 14.722656 37.363281 15.9375 C 37.8125 16.703125 38.25 17.457031 38.25 19.738281 C 38.25 22.019531 37.808594 22.773438 37.363281 23.539062 C 36.644531 24.75 35.761719 25.542969 33.113281 25.738281 C 31.671875 25.84375 30.199219 26.054688 28.820312 26.472656 C 25.910156 27.351562 24.214844 29.890625 24.347656 32.871094 C 24.464844 35.480469 26.578125 38.019531 29.117188 38.601562 C 32.125 39.296875 35.117188 38.085938 36.398438 35.390625 C 37.070312 33.980469 37.4375 32.378906 37.699219 30.820312 C 38.171875 28.03125 39.273438 26.945312 42.042969 26.640625 C 43.832031 26.445312 45.6875 26.640625 47.367188 25.6875 C 49.140625 24.386719 50.726562 22.4375 50.726562 19.738281 C 50.726562 17.035156 49.019531 14.203125 46.425781 13.386719 Z M 46.425781 13.386719 "/>
<path style=" stroke:none;fill-rule:nonzero;fill:rgb(7.058824%,7.058824%,7.058824%);fill-opacity:1;" d="M 18 26.070312 C 14.507812 26.070312 11.660156 23.210938 11.660156 19.707031 C 11.660156 16.199219 14.507812 13.34375 18 13.34375 C 21.492188 13.34375 24.339844 16.199219 24.339844 19.707031 C 24.339844 23.207031 21.488281 26.070312 18 26.070312 Z M 18 26.070312 "/>
<path style=" stroke:none;fill-rule:nonzero;fill:rgb(7.058824%,7.058824%,7.058824%);fill-opacity:1;" d="M 6.320312 39 C 2.832031 38.992188 -0.0078125 36.121094 0 32.613281 C 0.0078125 29.113281 2.867188 26.261719 6.363281 26.273438 C 9.851562 26.28125 12.691406 29.152344 12.683594 32.660156 C 12.671875 36.15625 9.8125 39.007812 6.320312 39 Z M 6.320312 39 "/>
<path style=" stroke:none;fill-rule:nonzero;fill:rgb(7.058824%,7.058824%,7.058824%);fill-opacity:1;" d="M 53.433594 39 C 49.9375 39.019531 47.066406 36.179688 47.046875 32.683594 C 47.027344 29.175781 49.855469 26.292969 53.339844 26.273438 C 56.835938 26.253906 59.707031 29.09375 59.726562 32.589844 C 59.746094 36.097656 56.917969 38.980469 53.433594 39 Z M 53.433594 39 "/>
</g>
</svg>
