<?xml version="1.0" encoding="UTF-8"?>
<svg xmlns="http://www.w3.org/2000/svg" xmlns:xlink="http://www.w3.org/1999/xlink" width="50px" height="50px" viewBox="0 0 56 50" version="1.1">
<g id="surface1">
<path style=" stroke:none;fill-rule:nonzero;fill:rgb(0%,84.705883%,100%);fill-opacity:1;" d="M 46.042969 16.191406 C 45.445312 15.984375 44.847656 15.792969 44.242188 15.621094 C 44.34375 15.203125 44.4375 14.792969 44.519531 14.386719 C 45.882812 7.746094 44.992188 2.398438 41.945312 0.636719 C 39.023438 -1.054688 34.246094 0.707031 29.421875 4.917969 C 28.945312 5.332031 28.480469 5.761719 28.027344 6.199219 C 27.722656 5.90625 27.414062 5.621094 27.097656 5.339844 C 22.042969 0.839844 16.972656 -1.058594 13.929688 0.710938 C 11.007812 2.402344 10.144531 7.433594 11.375 13.726562 C 11.496094 14.347656 11.632812 14.96875 11.789062 15.585938 C 11.070312 15.789062 10.378906 16.007812 9.714844 16.238281 C 3.785156 18.3125 0 21.558594 0 24.925781 C 0 28.40625 4.066406 31.894531 10.238281 34.011719 C 10.742188 34.183594 11.246094 34.339844 11.753906 34.488281 C 11.589844 35.152344 11.441406 35.820312 11.3125 36.492188 C 10.144531 42.675781 11.058594 47.585938 13.96875 49.269531 C 16.976562 51.007812 22.019531 49.21875 26.933594 44.914062 C 27.332031 44.5625 27.722656 44.203125 28.101562 43.835938 C 28.59375 44.308594 29.101562 44.773438 29.617188 45.21875 C 34.375 49.324219 39.078125 50.984375 41.984375 49.296875 C 44.988281 47.550781 45.964844 42.277344 44.699219 35.859375 C 44.597656 35.355469 44.484375 34.855469 44.363281 34.359375 C 44.714844 34.253906 45.0625 34.144531 45.402344 34.03125 C 51.824219 31.898438 56 28.453125 56 24.925781 C 56 21.546875 52.089844 18.277344 46.042969 16.191406 Z M 44.652344 31.757812 C 44.34375 31.859375 44.03125 31.957031 43.710938 32.050781 C 43 29.800781 42.046875 27.410156 40.875 24.9375 C 41.992188 22.527344 42.910156 20.164062 43.601562 17.929688 C 44.171875 18.097656 44.730469 18.273438 45.265625 18.457031 C 50.445312 20.246094 53.609375 22.890625 53.609375 24.925781 C 53.609375 27.097656 50.195312 29.914062 44.652344 31.757812 Z M 42.351562 36.324219 C 42.910156 39.164062 42.992188 41.726562 42.621094 43.734375 C 42.285156 45.535156 41.617188 46.738281 40.785156 47.21875 C 39.023438 48.242188 35.246094 46.914062 31.175781 43.402344 C 30.695312 42.984375 30.226562 42.554688 29.769531 42.113281 C 31.347656 40.382812 32.925781 38.371094 34.464844 36.140625 C 37.171875 35.898438 39.726562 35.503906 42.046875 34.96875 C 42.160156 35.429688 42.261719 35.882812 42.351562 36.324219 Z M 19.089844 47.042969 C 17.367188 47.652344 15.992188 47.671875 15.164062 47.191406 C 13.398438 46.167969 12.664062 42.226562 13.664062 36.9375 C 13.785156 36.3125 13.921875 35.691406 14.074219 35.074219 C 16.367188 35.582031 18.90625 35.949219 21.621094 36.167969 C 23.167969 38.355469 24.792969 40.363281 26.425781 42.125 C 26.078125 42.460938 25.722656 42.789062 25.359375 43.109375 C 23.1875 45.011719 21.011719 46.363281 19.089844 47.042969 Z M 11.015625 31.742188 C 8.285156 30.808594 6.027344 29.589844 4.484375 28.265625 C 3.09375 27.070312 2.390625 25.886719 2.390625 24.925781 C 2.390625 22.882812 5.433594 20.277344 10.503906 18.503906 C 11.117188 18.289062 11.761719 18.085938 12.429688 17.894531 C 13.132812 20.179688 14.050781 22.570312 15.160156 24.984375 C 14.035156 27.4375 13.105469 29.863281 12.394531 32.175781 C 11.933594 32.042969 11.472656 31.898438 11.015625 31.742188 Z M 13.722656 13.265625 C 12.667969 7.871094 13.367188 3.804688 15.128906 2.785156 C 17 1.699219 21.144531 3.246094 25.507812 7.132812 C 25.792969 7.386719 26.074219 7.648438 26.351562 7.910156 C 24.722656 9.664062 23.117188 11.65625 21.578125 13.832031 C 18.945312 14.074219 16.425781 14.46875 14.105469 14.996094 C 13.964844 14.421875 13.835938 13.84375 13.722656 13.265625 Z M 37.878906 19.246094 C 37.332031 18.296875 36.761719 17.359375 36.175781 16.4375 C 37.960938 16.664062 39.671875 16.964844 41.28125 17.332031 C 40.796875 18.882812 40.195312 20.503906 39.488281 22.164062 C 38.972656 21.179688 38.433594 20.207031 37.878906 19.246094 Z M 28.027344 9.625 C 29.128906 10.824219 30.234375 12.164062 31.324219 13.613281 C 29.117188 13.507812 26.910156 13.507812 24.703125 13.613281 C 25.792969 12.175781 26.90625 10.839844 28.027344 9.625 Z M 18.113281 19.261719 C 17.5625 20.214844 17.035156 21.183594 16.53125 22.164062 C 15.835938 20.507812 15.238281 18.878906 14.753906 17.304688 C 16.351562 16.949219 18.054688 16.65625 19.828125 16.433594 C 19.234375 17.363281 18.664062 18.304688 18.113281 19.261719 Z M 19.878906 33.59375 C 18.046875 33.386719 16.316406 33.109375 14.71875 32.761719 C 15.214844 31.160156 15.824219 29.496094 16.535156 27.804688 C 17.042969 28.785156 17.570312 29.753906 18.121094 30.710938 C 18.691406 31.691406 19.277344 32.652344 19.878906 33.59375 Z M 28.09375 40.398438 C 26.957031 39.171875 25.828125 37.8125 24.722656 36.355469 C 25.796875 36.398438 26.890625 36.417969 28 36.417969 C 29.140625 36.417969 30.269531 36.394531 31.378906 36.34375 C 30.289062 37.828125 29.1875 39.1875 28.09375 40.398438 Z M 39.511719 27.71875 C 40.261719 29.429688 40.890625 31.082031 41.390625 32.65625 C 39.769531 33.027344 38.015625 33.328125 36.167969 33.550781 C 36.761719 32.609375 37.332031 31.65625 37.886719 30.691406 C 38.449219 29.714844 38.992188 28.722656 39.511719 27.71875 Z M 35.816406 29.496094 C 34.964844 30.972656 34.070312 32.421875 33.128906 33.839844 C 31.421875 33.960938 29.710938 34.023438 28 34.019531 C 26.257812 34.019531 24.5625 33.964844 22.929688 33.859375 C 21.964844 32.445312 21.050781 30.992188 20.191406 29.507812 C 19.339844 28.03125 18.542969 26.523438 17.804688 24.984375 C 18.539062 23.445312 19.335938 21.9375 20.1875 20.457031 L 20.183594 20.460938 C 21.035156 18.980469 21.941406 17.535156 22.902344 16.125 C 24.566406 16 26.273438 15.933594 28 15.933594 C 29.734375 15.933594 31.445312 16 33.109375 16.128906 C 34.058594 17.535156 34.957031 18.976562 35.808594 20.445312 C 36.660156 21.921875 37.464844 23.421875 38.222656 24.949219 C 37.472656 26.492188 36.671875 28.007812 35.816406 29.496094 Z M 40.75 2.714844 C 42.625 3.796875 43.355469 8.167969 42.175781 13.902344 C 42.101562 14.269531 42.015625 14.640625 41.925781 15.019531 C 39.601562 14.480469 37.078125 14.082031 34.4375 13.832031 C 32.898438 11.636719 31.304688 9.640625 29.703125 7.910156 C 30.121094 7.503906 30.550781 7.109375 30.992188 6.726562 C 35.125 3.121094 38.988281 1.695312 40.75 2.714844 Z M 28 19.914062 C 30.761719 19.914062 33 22.160156 33 24.925781 C 33 27.695312 30.761719 29.941406 28 29.941406 C 25.238281 29.941406 23 27.695312 23 24.925781 C 23 22.160156 25.238281 19.914062 28 19.914062 Z M 28 19.914062 "/>
</g>
</svg>
