<?xml version="1.0" encoding="UTF-8"?>
<svg xmlns="http://www.w3.org/2000/svg" xmlns:xlink="http://www.w3.org/1999/xlink" width="50px" height="50px" viewBox="0 0 50 50" version="1.1">
<g id="surface1">
<path style=" stroke:none;fill-rule:nonzero;fill:rgb(40.000001%,20%,60.000002%);fill-opacity:1;" d="M 0 0 L 42 0 C 46.417969 0 50 3.582031 50 8 L 50 42 C 50 46.417969 46.417969 50 42 50 L 8 50 C 3.582031 50 0 46.417969 0 42 Z M 0 0 "/>
<path style=" stroke:none;fill-rule:nonzero;fill:rgb(100%,100%,100%);fill-opacity:1;" d="M 40.828125 45.996094 C 39.207031 45.996094 37.96875 45.523438 37.101562 44.578125 C 36.246094 43.625 35.796875 42.269531 35.757812 40.496094 L 39.246094 40.496094 C 39.269531 42.0625 39.820312 42.847656 40.902344 42.847656 C 41.453125 42.847656 41.84375 42.675781 42.070312 42.328125 C 42.289062 41.984375 42.40625 41.433594 42.40625 40.675781 C 42.40625 40.074219 42.257812 39.574219 41.964844 39.179688 C 41.570312 38.707031 41.0625 38.34375 40.492188 38.121094 L 39.199219 37.5 C 38.042969 36.949219 37.207031 36.296875 36.691406 35.535156 C 36.1875 34.78125 35.9375 33.71875 35.9375 32.363281 C 35.9375 30.84375 36.378906 29.613281 37.257812 28.664062 C 38.160156 27.71875 39.386719 27.246094 40.957031 27.246094 C 42.472656 27.246094 43.644531 27.714844 44.472656 28.640625 C 45.316406 29.570312 45.753906 30.902344 45.789062 32.648438 L 42.429688 32.648438 C 42.453125 32.078125 42.335938 31.511719 42.09375 30.992188 C 41.90625 30.613281 41.535156 30.421875 40.984375 30.421875 C 40 30.421875 39.507812 31.007812 39.507812 32.175781 C 39.507812 32.765625 39.628906 33.226562 39.871094 33.578125 C 40.214844 33.964844 40.652344 34.265625 41.136719 34.449219 L 42.375 34.996094 C 43.65625 35.582031 44.578125 36.296875 45.144531 37.164062 C 45.714844 38.027344 45.996094 39.179688 45.996094 40.621094 C 45.996094 42.347656 45.546875 43.675781 44.628906 44.601562 C 43.714844 45.527344 42.445312 45.996094 40.828125 45.996094 Z M 29.554688 45.996094 C 27.9375 45.996094 26.699219 45.523438 25.832031 44.578125 C 24.972656 43.625 24.527344 42.269531 24.488281 40.496094 L 27.976562 40.496094 C 27.996094 42.0625 28.546875 42.847656 29.632812 42.847656 C 30.183594 42.847656 30.574219 42.675781 30.792969 42.328125 C 31.019531 41.984375 31.128906 41.433594 31.128906 40.675781 C 31.128906 40.074219 30.984375 39.574219 30.695312 39.179688 C 30.300781 38.707031 29.792969 38.34375 29.21875 38.121094 L 27.925781 37.5 C 26.773438 36.949219 25.9375 36.296875 25.417969 35.535156 C 24.917969 34.78125 24.667969 33.71875 24.667969 32.363281 C 24.667969 30.84375 25.109375 29.613281 25.984375 28.664062 C 26.886719 27.71875 28.117188 27.246094 29.6875 27.246094 C 31.199219 27.246094 32.375 27.714844 33.195312 28.640625 C 34.046875 29.570312 34.484375 30.902344 34.519531 32.648438 L 31.160156 32.648438 C 31.179688 32.078125 31.066406 31.511719 30.824219 30.992188 C 30.632812 30.613281 30.261719 30.421875 29.710938 30.421875 C 28.726562 30.421875 28.238281 31.007812 28.238281 32.175781 C 28.238281 32.765625 28.359375 33.226562 28.597656 33.578125 C 28.945312 33.964844 29.378906 34.265625 29.867188 34.449219 L 31.105469 34.996094 C 32.382812 35.582031 33.304688 36.296875 33.871094 37.164062 C 34.441406 38.027344 34.726562 39.179688 34.726562 40.621094 C 34.726562 42.347656 34.269531 43.675781 33.355469 44.601562 C 32.445312 45.527344 31.175781 45.996094 29.554688 45.996094 Z M 17.820312 45.996094 C 16.234375 45.996094 14.976562 45.5625 14.042969 44.703125 C 13.109375 43.847656 12.648438 42.558594 12.648438 40.855469 L 12.648438 32.441406 C 12.648438 30.75 13.140625 29.464844 14.121094 28.585938 C 15.121094 27.714844 16.429688 27.273438 18.050781 27.273438 C 19.617188 27.273438 20.855469 27.722656 21.773438 28.613281 C 22.703125 29.511719 23.167969 30.84375 23.167969 32.621094 L 23.167969 33.289062 L 19.472656 33.289062 L 19.472656 32.640625 C 19.472656 31.957031 19.324219 31.449219 19.03125 31.121094 C 18.773438 30.785156 18.371094 30.59375 17.949219 30.601562 C 17.347656 30.601562 16.921875 30.808594 16.679688 31.222656 C 16.421875 31.800781 16.308594 32.429688 16.34375 33.058594 L 16.34375 40.371094 C 16.34375 41.898438 16.882812 42.675781 17.949219 42.691406 C 18.449219 42.691406 18.824219 42.507812 19.085938 42.148438 C 19.371094 41.691406 19.503906 41.160156 19.472656 40.625 L 19.472656 40.078125 L 23.167969 40.078125 L 23.167969 40.652344 C 23.167969 41.839844 22.9375 42.828125 22.472656 43.621094 C 22.027344 44.394531 21.363281 45.015625 20.5625 45.402344 C 19.707031 45.8125 18.765625 46.015625 17.820312 45.996094 Z M 17.820312 45.996094 "/>
</g>
</svg>
