<?xml version="1.0" standalone="no"?>
<!DOCTYPE svg PUBLIC "-//W3C//DTD SVG 20010904//EN" "http://www.w3.org/TR/2001/REC-SVG-20010904/DTD/svg10.dtd">
<svg version="1.0" xmlns="http://www.w3.org/2000/svg"
    width="50px" height="50px" viewBox="0 0 640.000000 396.000000"
    preserveAspectRatio="xMidYMid meet">

    <g transform="translate(0.000000,396.000000) scale(0.100000,-0.100000)"
        fill="#000000" stroke="none">
        <path d="M4725 3650 c-3 -5 1 -10 9 -10 8 0 18 5 21 10 3 6 -1 10 -9 10 -8 0
-18 -4 -21 -10z" />
        <path
            d="M3096 3554 c-3 -9 -6 -31 -6 -50 0 -35 -69 -209 -102 -256 -10 -14
-18 -34 -18 -43 0 -24 19 -55 33 -55 12 0 104 153 114 189 8 32 21 25 29 -15
7 -39 -3 -477 -13 -531 -4 -28 -2 -34 22 -45 48 -22 50 -8 50 305 0 157 3 283
8 280 4 -2 7 -10 7 -18 0 -7 16 -36 35 -65 19 -29 35 -58 35 -65 0 -12 21 -25
41 -25 5 0 16 11 25 25 16 25 15 26 -24 69 -44 48 -63 80 -82 141 -26 82 -61
145 -90 160 -37 19 -56 19 -64 -1z" />
        <path
            d="M1950 3469 c0 -6 4 -18 10 -28 7 -14 5 -23 -10 -36 -19 -17 -20 -32
-20 -200 0 -168 1 -183 20 -200 40 -36 54 -11 89 162 l17 81 56 -86 c30 -48
63 -103 73 -122 10 -19 48 -87 85 -150 37 -63 78 -141 91 -173 23 -59 48 -83
75 -73 8 3 14 12 14 21 0 23 -82 181 -158 304 -168 273 -204 333 -200 336 2 2
50 -11 107 -30 56 -19 104 -35 107 -35 10 0 3 58 -8 67 -7 6 -35 16 -63 23
-86 23 -148 56 -195 104 -41 43 -90 62 -90 35z" />
        <path
            d="M4460 3382 c-124 -45 -259 -106 -264 -120 -3 -7 -1 -24 4 -38 13 -33
21 -31 167 35 62 28 117 51 123 51 5 0 10 -9 10 -20 0 -16 -5 -19 -23 -15 -18
5 -37 -8 -97 -67 -41 -40 -120 -113 -175 -162 -93 -83 -175 -158 -380 -346
-82 -76 -92 -97 -60 -130 13 -13 25 -5 98 66 239 233 585 544 604 544 12 0 14
-7 10 -27 -15 -77 -18 -152 -7 -191 9 -36 15 -43 33 -40 20 3 22 8 19 59 -4
58 15 186 44 317 16 69 16 73 -1 92 -22 24 -14 25 -105 -8z" />
        <path
            d="M2605 2582 c-107 -36 -184 -83 -265 -162 -48 -48 -71 -79 -83 -115
-21 -62 -21 -80 2 -132 32 -68 58 -76 226 -68 160 8 193 0 234 -56 64 -87 17
-179 -116 -229 -81 -30 -226 -26 -296 9 -51 25 -51 25 -33 86 4 11 2 26 -3 34
-8 12 -13 12 -36 -3 -51 -34 -45 -80 21 -143 61 -59 126 -77 258 -71 162 8
258 65 285 172 21 84 -36 200 -124 251 -51 31 -94 34 -250 21 -90 -8 -103 -7
-119 9 -33 33 3 116 86 197 100 99 286 174 375 152 31 -7 38 -13 38 -34 1 -62
27 -86 59 -54 14 14 14 19 0 52 -19 47 -51 81 -91 98 -46 20 -77 17 -168 -14z" />
        <path
            d="M3165 2553 c-60 -8 -141 -15 -178 -16 l-69 -2 6 -40 c15 -98 17 -238
6 -321 -18 -129 -29 -395 -18 -417 11 -21 33 -19 173 14 88 21 225 25 256 8
24 -12 49 3 49 31 0 55 -120 74 -280 45 -52 -10 -108 -20 -124 -23 l-29 -5 7
119 c7 134 15 182 26 164 6 -9 34 -8 125 5 64 9 125 15 136 12 28 -7 53 26 40
52 -17 31 -48 34 -173 18 -62 -8 -116 -13 -120 -11 -4 3 -7 62 -7 133 l1 129
27 5 c15 3 86 11 157 18 134 13 154 19 154 49 0 14 -41 53 -52 49 -2 -1 -52
-8 -113 -16z" />
        <path
            d="M3555 2438 c-15 -18 -32 -45 -37 -59 -5 -15 -17 -29 -27 -32 -48 -12
-101 -361 -71 -468 22 -78 94 -149 152 -149 82 0 160 90 204 235 13 44 18 94
19 190 0 149 -10 188 -63 247 -69 76 -132 89 -177 36z m123 -58 c50 -31 72
-88 72 -191 0 -143 -47 -289 -110 -343 -61 -51 -122 -46 -153 14 -16 30 -18
51 -12 155 3 66 8 135 12 153 5 31 6 32 24 16 17 -15 18 -14 24 23 15 92 29
136 52 164 29 34 46 36 91 9z" />
        <path
            d="M5076 2343 c-3 -8 -6 -26 -6 -39 0 -23 3 -24 63 -24 122 0 307 -41
307 -68 0 -16 -67 -77 -130 -117 -48 -31 -69 -51 -74 -71 -12 -48 8 -46 94 8
98 62 163 133 163 178 0 85 -73 113 -375 144 -26 3 -38 0 -42 -11z" />
        <path
            d="M1033 2259 c-101 -92 -166 -179 -161 -218 3 -24 13 -29 118 -63 63
-21 136 -47 162 -59 50 -23 78 -20 78 8 0 41 -29 61 -142 97 -141 46 -144 47
-127 73 11 19 21 20 143 18 72 -2 226 -11 341 -20 218 -18 549 -14 587 6 19
10 25 54 9 63 -5 3 -60 -1 -122 -10 -119 -17 -257 -15 -509 7 -63 5 -166 14
-229 19 -62 5 -116 12 -120 15 -6 7 13 24 66 63 21 16 24 23 18 50 -3 18 -10
32 -15 32 -4 0 -48 -36 -97 -81z" />
        <path
            d="M4875 2233 c-306 -12 -785 -40 -832 -49 -28 -5 -33 -10 -33 -35 0
-35 -4 -35 199 -14 231 23 536 36 789 34 252 -2 265 1 244 46 l-12 25 -142 -2
c-79 -1 -174 -3 -213 -5z" />
        <path
            d="M3773 1713 c-24 -9 -13 -42 30 -85 24 -24 109 -131 189 -238 149
-200 442 -554 479 -579 17 -12 25 -12 40 -3 17 11 19 9 19 -18 0 -16 -5 -30
-11 -30 -6 0 -42 20 -80 45 -77 50 -98 54 -123 26 -17 -18 -17 -20 3 -40 12
-12 26 -21 33 -21 6 0 43 -18 80 -41 53 -31 77 -39 106 -37 52 4 64 32 58 133
-8 135 -34 185 -80 152 -17 -12 -17 -16 -2 -65 12 -43 13 -51 1 -45 -33 19
-356 405 -542 649 -164 215 -162 213 -200 197z" />
        <path
            d="M3009 1667 c-1 -7 0 -27 1 -46 1 -19 -6 -51 -16 -73 -17 -38 -17 -39
4 -54 21 -14 21 -15 18 -487 -1 -259 0 -485 3 -501 5 -24 16 -35 49 -53 7 -3
-10 -63 -17 -63 -4 0 -17 24 -29 53 -35 84 -61 110 -112 111 -55 1 -61 -16
-15 -43 35 -20 44 -36 111 -189 17 -39 52 -56 75 -36 9 8 28 56 43 107 15 50
37 120 48 155 23 72 19 92 -16 92 -22 0 -27 -8 -43 -56 l-18 -57 -8 34 c-5 19
-8 259 -8 534 0 275 -3 515 -7 534 -6 26 -14 36 -35 42 -18 5 -27 3 -28 -4z" />
        <path
            d="M2397 1573 c-30 -48 -92 -146 -137 -217 -46 -71 -116 -193 -156 -270
l-74 -141 0 67 c0 58 -3 69 -22 82 -12 9 -25 16 -29 16 -4 0 -10 -61 -14 -135
-7 -122 -6 -138 10 -155 10 -11 30 -20 44 -20 37 0 140 70 201 137 60 66 75
96 60 124 -15 27 -33 24 -52 -8 -21 -35 -106 -119 -113 -111 -17 17 203 406
330 583 30 42 55 80 55 84 0 4 -11 18 -24 30 l-24 22 -55 -88z m-354 -685
c-10 -19 -23 -5 -23 25 l0 32 14 -25 c7 -14 11 -28 9 -32z" />
    </g>
</svg>